<svg width="502" height="382" viewBox="0 0 502 382" fill="none" xmlns="http://www.w3.org/2000/svg">
<g clip-path="url(#clip0_6_449)">
<path d="M280.798 382C363.532 382 430.602 314.931 430.602 232.196C430.602 149.462 363.532 82.3926 280.798 82.3926C198.064 82.3926 130.994 149.462 130.994 232.196C130.994 314.931 198.064 382 280.798 382Z" fill="#F5F1FD"/>
<path d="M60.2851 202.88C54.5279 245.904 78.1389 284.566 113.022 289.234C147.905 293.902 180.85 262.808 186.607 219.784L60.2851 202.88Z" fill="#9F6EED"/>
<path d="M157.665 215.857L186.607 219.967C186.607 219.967 182.521 254.675 158.558 273.941C158.558 273.941 145.013 286.012 133.033 287.671C133.033 287.671 158.25 263.212 157.665 215.857Z" fill="#8E63D5"/>
<g opacity="0.5">
<path d="M277.183 268.379V245.489H267.379V268.379L255.495 290.857C255.495 290.857 252.723 295.32 259.958 295.32H284.604C291.934 295.32 289.067 290.857 289.067 290.857L277.183 268.379Z" fill="#E4EEF3" stroke="#BEBEBE" stroke-width="1.67932" stroke-linecap="round" stroke-linejoin="round"/>
</g>
<g opacity="0.8">
<g opacity="0.4">
<path d="M288.234 290.351L280.348 275.352H264.271L256.182 290.524C256.182 290.524 253.618 294.748 260.312 294.748C267.005 294.748 276.306 294.88 283.086 294.793C290.964 294.694 288.234 290.351 288.234 290.351Z" fill="#8E17FF"/>
</g>
<g style="mix-blend-mode:overlay" opacity="0.8">
<g style="mix-blend-mode:overlay" opacity="0.7">
<path d="M272.237 290.573C272.237 290.747 272.186 290.917 272.09 291.061C271.993 291.206 271.856 291.319 271.695 291.385C271.535 291.452 271.358 291.47 271.188 291.436C271.017 291.402 270.86 291.318 270.737 291.196C270.614 291.073 270.53 290.916 270.496 290.746C270.462 290.575 270.48 290.398 270.546 290.238C270.613 290.077 270.725 289.94 270.87 289.843C271.015 289.746 271.184 289.695 271.358 289.695C271.591 289.695 271.815 289.787 271.98 289.952C272.144 290.116 272.237 290.34 272.237 290.573V290.573Z" fill="#FFFF82"/>
</g>
<g style="mix-blend-mode:overlay" opacity="0.7">
<path d="M271.391 288.628C271.39 288.709 271.366 288.787 271.321 288.854C271.276 288.921 271.213 288.973 271.138 289.004C271.064 289.035 270.982 289.043 270.903 289.027C270.824 289.011 270.751 288.972 270.694 288.915C270.637 288.858 270.598 288.786 270.583 288.707C270.567 288.627 270.575 288.546 270.606 288.471C270.637 288.397 270.689 288.333 270.756 288.288C270.823 288.243 270.902 288.219 270.982 288.219C271.036 288.219 271.089 288.23 271.139 288.25C271.188 288.271 271.233 288.301 271.271 288.339C271.309 288.377 271.339 288.422 271.36 288.472C271.38 288.521 271.391 288.574 271.391 288.628V288.628Z" fill="#FFFF82"/>
</g>
<g style="mix-blend-mode:overlay" opacity="0.7">
<path d="M270.449 293.647C270.449 293.727 270.425 293.806 270.38 293.873C270.335 293.94 270.271 293.992 270.197 294.023C270.122 294.053 270.041 294.061 269.962 294.046C269.883 294.03 269.81 293.991 269.753 293.934C269.696 293.877 269.657 293.805 269.642 293.726C269.626 293.647 269.634 293.565 269.665 293.49C269.695 293.416 269.747 293.352 269.814 293.307C269.881 293.262 269.96 293.238 270.04 293.238C270.094 293.238 270.147 293.249 270.197 293.269C270.246 293.29 270.291 293.32 270.329 293.358C270.367 293.396 270.397 293.441 270.418 293.49C270.438 293.54 270.449 293.593 270.449 293.647V293.647Z" fill="#FFFF82"/>
</g>
<g style="mix-blend-mode:overlay" opacity="0.7">
<path d="M272.676 293.269C272.676 293.38 272.643 293.49 272.581 293.582C272.52 293.675 272.432 293.748 272.328 293.79C272.225 293.833 272.112 293.845 272.003 293.823C271.893 293.801 271.793 293.748 271.714 293.669C271.634 293.59 271.581 293.49 271.559 293.381C271.537 293.271 271.547 293.158 271.59 293.055C271.632 292.951 271.705 292.863 271.797 292.801C271.89 292.739 271.999 292.705 272.11 292.705C272.26 292.705 272.403 292.765 272.509 292.87C272.615 292.976 272.675 293.119 272.676 293.269V293.269Z" fill="#FFFF82"/>
</g>
<g style="mix-blend-mode:overlay" opacity="0.7">
<path d="M270.856 279.187C270.857 279.267 270.833 279.346 270.788 279.413C270.743 279.481 270.68 279.533 270.605 279.564C270.531 279.595 270.449 279.603 270.369 279.588C270.29 279.572 270.217 279.533 270.16 279.476C270.103 279.419 270.064 279.346 270.048 279.267C270.033 279.188 270.041 279.106 270.072 279.031C270.103 278.957 270.155 278.893 270.222 278.848C270.289 278.804 270.368 278.78 270.449 278.78C270.502 278.78 270.555 278.79 270.605 278.811C270.654 278.831 270.699 278.861 270.737 278.899C270.775 278.937 270.805 278.981 270.825 279.031C270.846 279.08 270.856 279.133 270.856 279.187V279.187Z" fill="#FFFF82"/>
</g>
<g style="mix-blend-mode:overlay" opacity="0.7">
<path d="M272.738 283.359C272.738 283.52 272.691 283.678 272.601 283.812C272.511 283.946 272.384 284.051 272.235 284.113C272.086 284.174 271.922 284.191 271.764 284.159C271.605 284.128 271.46 284.05 271.346 283.936C271.232 283.822 271.154 283.676 271.123 283.518C271.091 283.36 271.108 283.195 271.169 283.046C271.231 282.897 271.336 282.77 271.47 282.68C271.605 282.591 271.762 282.543 271.924 282.543C272.14 282.544 272.347 282.629 272.5 282.782C272.653 282.935 272.738 283.142 272.738 283.359Z" fill="#FFFF82"/>
</g>
<g style="mix-blend-mode:overlay" opacity="0.7">
<path d="M273.896 275.22C273.896 275.381 273.848 275.539 273.758 275.673C273.669 275.807 273.542 275.912 273.393 275.973C273.244 276.035 273.08 276.051 272.922 276.02C272.763 275.989 272.618 275.911 272.504 275.797C272.39 275.683 272.312 275.538 272.281 275.379C272.249 275.221 272.266 275.057 272.327 274.908C272.389 274.759 272.494 274.632 272.628 274.542C272.762 274.453 272.92 274.405 273.081 274.405C273.188 274.405 273.294 274.426 273.393 274.467C273.492 274.508 273.582 274.568 273.658 274.643C273.733 274.719 273.793 274.809 273.834 274.908C273.875 275.007 273.896 275.113 273.896 275.22V275.22Z" fill="#FFFF82"/>
</g>
<g style="mix-blend-mode:overlay" opacity="0.7">
<path d="M267.833 278.501C267.833 278.602 267.803 278.7 267.747 278.784C267.691 278.867 267.611 278.932 267.518 278.971C267.425 279.009 267.323 279.019 267.224 278.999C267.125 278.98 267.034 278.931 266.963 278.86C266.892 278.788 266.844 278.697 266.824 278.599C266.805 278.5 266.815 278.398 266.854 278.305C266.892 278.212 266.958 278.132 267.042 278.076C267.125 278.02 267.224 277.991 267.324 277.991C267.391 277.991 267.458 278.004 267.52 278.03C267.581 278.055 267.638 278.093 267.685 278.14C267.732 278.188 267.769 278.244 267.795 278.306C267.82 278.368 267.833 278.434 267.833 278.501Z" fill="#FFFF82"/>
</g>
<g style="mix-blend-mode:overlay" opacity="0.7">
<path d="M280.798 278.223C280.798 278.323 280.768 278.422 280.712 278.505C280.656 278.589 280.577 278.654 280.484 278.692C280.391 278.731 280.289 278.741 280.19 278.721C280.091 278.701 280.001 278.653 279.929 278.582C279.858 278.511 279.81 278.42 279.79 278.321C279.771 278.223 279.781 278.12 279.819 278.027C279.858 277.934 279.923 277.855 280.007 277.799C280.09 277.743 280.189 277.713 280.289 277.713C280.356 277.713 280.422 277.726 280.484 277.752C280.546 277.778 280.602 277.815 280.649 277.862C280.697 277.91 280.734 277.966 280.76 278.028C280.785 278.09 280.798 278.156 280.798 278.223V278.223Z" fill="#FFFF82"/>
</g>
<g style="mix-blend-mode:overlay" opacity="0.7">
<path d="M278.295 284.844C278.295 285.088 278.223 285.327 278.087 285.529C277.952 285.732 277.759 285.89 277.534 285.984C277.309 286.077 277.061 286.102 276.822 286.054C276.583 286.006 276.363 285.889 276.19 285.717C276.018 285.544 275.9 285.325 275.853 285.086C275.805 284.846 275.83 284.598 275.923 284.373C276.016 284.148 276.174 283.955 276.377 283.82C276.58 283.684 276.818 283.612 277.062 283.612C277.224 283.612 277.384 283.643 277.534 283.705C277.683 283.767 277.819 283.858 277.934 283.972C278.048 284.087 278.139 284.223 278.201 284.373C278.263 284.522 278.295 284.683 278.295 284.844Z" fill="#FFFF82"/>
</g>
<g style="mix-blend-mode:overlay" opacity="0.7">
<path d="M268.278 289.741C268.278 289.941 268.219 290.136 268.108 290.303C267.997 290.469 267.839 290.598 267.655 290.675C267.47 290.751 267.267 290.771 267.071 290.732C266.875 290.693 266.695 290.597 266.554 290.456C266.413 290.315 266.316 290.135 266.277 289.939C266.238 289.743 266.259 289.54 266.335 289.355C266.412 289.171 266.541 289.013 266.707 288.902C266.873 288.791 267.069 288.732 267.268 288.732C267.536 288.732 267.793 288.838 267.982 289.028C268.171 289.217 268.278 289.474 268.278 289.741Z" fill="#FFFF82"/>
</g>
</g>
</g>
<g opacity="0.6">
<path d="M278.615 244.288C278.615 244.599 278.492 244.897 278.272 245.116C278.053 245.336 277.755 245.459 277.444 245.46H267.149C266.839 245.459 266.541 245.336 266.321 245.116C266.102 244.896 265.979 244.599 265.979 244.288C265.979 244.134 266.009 243.982 266.068 243.84C266.126 243.698 266.213 243.569 266.321 243.46C266.43 243.352 266.559 243.266 266.701 243.207C266.843 243.148 266.995 243.118 267.149 243.118H277.444C277.598 243.118 277.75 243.148 277.892 243.207C278.034 243.265 278.163 243.352 278.272 243.46C278.381 243.569 278.467 243.698 278.526 243.84C278.585 243.982 278.615 244.134 278.615 244.288V244.288Z" fill="#E4EEF3" stroke="#BEBEBE" stroke-width="1.67932" stroke-linecap="round" stroke-linejoin="round"/>
<g style="mix-blend-mode:multiply" opacity="0.4">
<path d="M277.444 243.118H267.149C266.838 243.118 266.541 243.241 266.321 243.461C266.101 243.68 265.978 243.978 265.978 244.289C265.978 244.599 266.101 244.897 266.321 245.117C266.541 245.336 266.838 245.46 267.149 245.46H277.444C277.755 245.46 278.052 245.336 278.272 245.117C278.492 244.897 278.615 244.599 278.615 244.289C278.615 243.978 278.492 243.68 278.272 243.461C278.052 243.241 277.755 243.118 277.444 243.118V243.118ZM273.769 244.934H267.29C267.198 244.946 267.105 244.938 267.016 244.911C266.927 244.884 266.845 244.839 266.776 244.778C266.706 244.717 266.65 244.641 266.612 244.557C266.573 244.472 266.554 244.381 266.554 244.288C266.554 244.195 266.573 244.103 266.612 244.019C266.65 243.935 266.706 243.859 266.776 243.798C266.845 243.737 266.927 243.691 267.016 243.665C267.105 243.638 267.198 243.63 267.29 243.642H273.769C273.86 243.63 273.954 243.638 274.043 243.665C274.131 243.692 274.213 243.737 274.283 243.798C274.353 243.859 274.408 243.935 274.447 244.019C274.485 244.104 274.505 244.195 274.505 244.288C274.505 244.381 274.485 244.472 274.447 244.557C274.408 244.641 274.353 244.716 274.283 244.777C274.213 244.839 274.131 244.884 274.043 244.911C273.954 244.938 273.86 244.946 273.769 244.934Z" fill="#C3CCD1"/>
</g>
<g style="mix-blend-mode:color-dodge" opacity="0.9">
<path d="M268.479 244.203C268.479 244.304 268.439 244.402 268.367 244.473C268.295 244.545 268.198 244.585 268.097 244.585H267.46C267.358 244.585 267.261 244.545 267.189 244.473C267.117 244.402 267.077 244.305 267.077 244.203V244.203C267.077 244.153 267.087 244.103 267.106 244.057C267.125 244.01 267.153 243.968 267.189 243.933C267.224 243.897 267.267 243.869 267.313 243.85C267.36 243.831 267.409 243.821 267.46 243.821H268.097C268.147 243.821 268.197 243.831 268.243 243.85C268.29 243.869 268.332 243.897 268.367 243.933C268.403 243.968 268.431 244.01 268.45 244.057C268.469 244.103 268.479 244.153 268.479 244.203Z" fill="#E4F4FE"/>
</g>
<g style="mix-blend-mode:multiply" opacity="0.4">
<path d="M277.444 243.118H275.601C275.844 243.163 276.068 243.281 276.243 243.456C276.419 243.632 276.537 243.856 276.583 244.099C276.622 244.386 276.562 244.678 276.412 244.926C276.262 245.173 276.031 245.362 275.759 245.46H277.444C277.755 245.46 278.052 245.336 278.272 245.117C278.492 244.897 278.615 244.599 278.615 244.289C278.615 243.978 278.492 243.68 278.272 243.461C278.052 243.241 277.755 243.118 277.444 243.118H277.444Z" fill="#C3CCD1"/>
</g>
<g style="mix-blend-mode:multiply" opacity="0.4">
<path d="M289.067 290.857L277.183 268.379V245.489H267.379V268.379L255.495 290.857C255.495 290.857 252.723 295.32 259.958 295.32H284.604C291.934 295.32 289.067 290.857 289.067 290.857ZM276.318 292.902H260.078C257.275 292.445 258.762 289.699 258.762 289.699L268.312 268.198V246.355H273.402V268.427C273.402 268.427 279.017 287.447 279.521 289.871C280.149 292.902 276.318 292.902 276.318 292.902V292.902Z" fill="#C3CCD1"/>
</g>
</g>
<g style="mix-blend-mode:multiply" opacity="0.5">
<path d="M289.067 290.857L277.183 268.379V245.489H275.106C275.076 245.531 275.06 245.553 275.06 245.553V268.027C275.06 268.027 285.068 289.585 285.181 291.815C285.297 294.045 280.035 293.874 280.035 293.874H256.818C254.874 293.13 255.788 290.386 255.788 290.386L255.73 290.414L255.495 290.856C255.495 290.856 252.723 295.32 259.958 295.32H284.604C291.934 295.32 289.067 290.857 289.067 290.857Z" fill="#B5BDC2"/>
</g>
<g style="mix-blend-mode:overlay" opacity="0.7">
<path d="M269.743 246.812H268.885V268.198L260.021 289.356C260.021 289.356 258.878 291.472 260.421 291.872H263.109C263.479 291.95 263.865 291.895 264.2 291.717C264.534 291.54 264.795 291.251 264.939 290.901C265.454 289.643 271.058 268.141 271.058 268.141V246.812H269.743Z" fill="white"/>
</g>
<path d="M312.871 65.2372L276.212 86.9771L239.056 66.0996L238.558 23.483L275.216 1.74316L312.373 22.6199L312.871 65.2372Z" stroke="#FEBFB4" stroke-miterlimit="10"/>
<path d="M351.03 128.415L314.372 150.155L277.215 129.278L276.717 86.6607L313.375 64.9209L350.531 85.7983L351.03 128.415Z" stroke="#FEBFB4" stroke-miterlimit="10"/>
<path d="M386.81 63.4941L350.152 85.2339L312.995 64.3571L312.497 21.7398L349.155 0L386.312 20.8774L386.81 63.4941Z" stroke="#FEBFB4" stroke-miterlimit="10"/>
<path d="M424.879 127.552L388.221 149.292L351.064 128.415L350.566 85.7974L387.224 64.0576L424.38 84.9351L424.879 127.552Z" stroke="#FEBFB4" stroke-miterlimit="10"/>
<path d="M460.662 63.4941L424.004 85.2339L386.848 64.3571L386.35 21.7398L423.008 0L460.165 20.8774L460.662 63.4941Z" stroke="#FEBFB4" stroke-miterlimit="10"/>
<path d="M247.849 280.797C247.193 277.675 246.467 270.366 244.153 268.055C241.121 265.026 236.452 267.719 232.868 269.152C208.468 278.906 180.414 278.406 155.83 269.127C138.088 262.43 122.191 251.319 109.238 237.436C104.501 232.359 101.066 226.285 98.2263 219.948C96.6222 216.361 93.7008 213.527 90.0663 212.033C86.4318 210.539 82.3621 210.498 78.6987 211.92C75.0354 213.342 72.0585 216.118 70.3838 219.673C68.7092 223.228 68.4647 227.29 69.7009 231.02C70.2929 233.818 71.2378 236.53 72.5129 239.09C86.609 268.95 116.278 289.987 148.483 297.279C180.688 304.571 214.973 299.033 245.162 285.656C246.236 285.18 247.399 284.603 247.852 283.518C248.124 282.631 248.123 281.684 247.849 280.797V280.797Z" fill="#FFD9D2"/>
<path d="M238.558 267.499C238.558 267.499 266.174 246.289 284.576 256.444C284.576 256.444 291.791 257.952 276.917 267.499C267.188 273.656 257.115 279.252 246.748 284.261L238.558 267.499Z" fill="#FFD9D2"/>
<path d="M295.063 134.356C293.564 137.227 294.609 140.824 290.926 152.138C288.622 159.217 287.672 171.522 277.593 203.009C266.397 237.986 250.546 240.129 230.855 246.971C201.684 257.107 178.545 255.701 178.545 255.701C189.018 236.736 189.594 219.906 189.594 219.906C189.594 219.906 234.117 219.698 246.57 205.421C259.023 191.145 271.063 150.73 271.063 150.73C271.063 150.73 268.518 145.176 270.823 141.046" fill="#FFD9D2"/>
<path d="M189.527 219.734C188.829 225.837 187.595 231.866 185.839 237.751C183.948 243.94 181.507 249.947 178.545 255.701C183.861 255.888 189.183 255.676 194.467 255.067L189.527 219.734Z" fill="#FCCEC8"/>
<path d="M292.676 131.368L279.526 131.39C279.368 131.387 279.215 131.444 279.098 131.55C278.98 131.655 278.908 131.802 278.895 131.959C278.845 133.251 277.239 136.806 279.617 143.223C281.516 148.349 286.415 148.412 289.898 147.705C291.005 147.473 292.019 146.923 292.817 146.121C293.614 145.32 294.158 144.302 294.384 143.194L295.995 135.442C296.098 134.949 296.089 134.44 295.97 133.951C295.85 133.461 295.623 133.005 295.305 132.615C294.987 132.225 294.586 131.91 294.131 131.694C293.676 131.479 293.179 131.367 292.676 131.368V131.368Z" fill="#EFCECA"/>
<path d="M270.929 141.402C270.866 141.33 270.828 141.24 270.818 141.146C270.808 141.051 270.828 140.955 270.875 140.872C271.569 139.639 274.495 134.624 277.503 132.114C277.805 131.812 278.179 131.592 278.589 131.473C279 131.355 279.434 131.342 279.85 131.435C280.432 131.616 280.953 131.953 281.358 132.408C282.018 133.121 282.414 134.037 282.483 135.006C282.551 135.975 282.286 136.938 281.733 137.735L278.783 142.088C278.402 142.649 277.896 143.115 277.304 143.448C276.713 143.781 276.052 143.971 275.375 144.005C274.697 144.039 274.021 143.915 273.399 143.643C272.777 143.371 272.228 142.958 271.793 142.437L270.929 141.402Z" fill="#EFCECA"/>
<path opacity="0.5" d="M310.293 122.478C309.743 122.826 310.173 123.75 310.173 123.75C310.375 124.575 309.129 125.179 309.129 125.179L309.119 125.193L272.013 145.399L272.024 145.42L275.19 151.233L275.202 151.255L312.308 131.049L312.324 131.047C312.324 131.047 313.509 130.329 314.092 130.947C314.092 130.947 314.635 131.809 315.225 131.536C315.345 131.502 315.456 131.442 315.551 131.361C315.645 131.28 315.722 131.18 315.775 131.067C315.828 130.955 315.856 130.832 315.857 130.708C315.859 130.583 315.834 130.46 315.784 130.346L311.596 122.654C311.527 122.55 311.437 122.463 311.331 122.396C311.226 122.33 311.108 122.287 310.984 122.271C310.861 122.254 310.735 122.264 310.616 122.299C310.497 122.335 310.387 122.396 310.293 122.478V122.478Z" fill="#E4EEF3" stroke="#BEBEBE" stroke-linecap="round" stroke-linejoin="round"/>
<path d="M275.434 150.643L312.2 130.687C312.422 130.559 312.596 130.362 312.696 130.125C312.796 129.889 312.815 129.626 312.752 129.378L310.869 125.921C310.705 125.711 310.476 125.56 310.217 125.49C309.959 125.421 309.685 125.438 309.437 125.539L291.592 137.686L275.434 150.643Z" fill="#FF7E69"/>
<g opacity="0.6">
<path d="M271.144 145.296C271.311 145.205 271.506 145.185 271.687 145.238C271.869 145.292 272.022 145.415 272.112 145.581L275.194 151.241C274.936 151.398 275.108 152.425 275.165 152.883C275.215 153.287 274.529 153.131 274.368 152.709L270.858 146.264C270.768 146.098 270.747 145.902 270.801 145.721C270.855 145.539 270.978 145.386 271.144 145.296H271.144Z" fill="#E4EEF3" stroke="#BEBEBE" stroke-linecap="round" stroke-linejoin="round"/>
</g>
<g style="mix-blend-mode:multiply" opacity="0.4">
<path d="M270.858 146.264L274.368 152.709C274.529 153.131 275.215 153.287 275.165 152.883C275.108 152.425 274.936 151.398 275.194 151.241L272.112 145.581C272.021 145.415 271.868 145.292 271.687 145.239C271.506 145.186 271.311 145.207 271.145 145.297C270.979 145.388 270.856 145.54 270.802 145.721C270.748 145.903 270.768 146.098 270.858 146.264H270.858ZM272.158 147.102C272.211 147.084 272.268 147.077 272.324 147.083C272.379 147.088 272.433 147.105 272.482 147.132C272.531 147.16 272.574 147.197 272.607 147.243C272.64 147.288 272.664 147.339 272.676 147.394L274.758 151.217C274.758 151.217 274.736 151.923 274.698 152.207C274.661 152.49 274.428 152.018 274.428 152.018L272.285 148.038C272.095 147.734 271.749 147.229 272.158 147.102V147.102Z" fill="#C3CCD1"/>
</g>
<g style="mix-blend-mode:multiply" opacity="0.4">
<path d="M270.858 146.264L271.242 146.968C271.241 146.801 271.298 146.639 271.402 146.509C271.507 146.379 271.653 146.289 271.815 146.253C271.935 146.213 272.063 146.202 272.188 146.22C272.313 146.238 272.432 146.286 272.536 146.359L272.112 145.581C272.021 145.415 271.868 145.292 271.687 145.239C271.506 145.186 271.311 145.207 271.145 145.297C270.979 145.388 270.856 145.54 270.802 145.721C270.748 145.903 270.768 146.098 270.858 146.264V146.264Z" fill="#C3CCD1"/>
</g>
<g style="mix-blend-mode:multiply" opacity="0.4">
<path d="M310.293 122.478C309.743 122.826 310.173 123.75 310.173 123.75C310.375 124.575 309.129 125.179 309.129 125.179L309.119 125.193L272.013 145.399L272.024 145.42L275.19 151.233L275.202 151.255L312.308 131.049L312.324 131.047C312.324 131.047 313.509 130.329 314.092 130.947C314.092 130.947 314.635 131.809 315.225 131.536C315.345 131.502 315.456 131.442 315.551 131.361C315.645 131.28 315.722 131.18 315.775 131.067C315.828 130.955 315.856 130.832 315.857 130.708C315.859 130.583 315.834 130.46 315.784 130.346L311.596 122.654C311.527 122.55 311.437 122.463 311.331 122.396C311.226 122.33 311.108 122.287 310.984 122.271C310.861 122.254 310.735 122.264 310.616 122.299C310.497 122.335 310.387 122.396 310.293 122.478V122.478ZM312.698 126.497C313.031 126.427 313.297 126.986 313.297 126.986L315.165 130.417C315.192 130.472 315.206 130.532 315.205 130.593C315.205 130.654 315.19 130.715 315.162 130.769C315.135 130.824 315.095 130.871 315.045 130.908C314.996 130.944 314.94 130.969 314.879 130.979C314.519 131.065 314.199 130.275 314.199 130.275L312.612 127.359C312.534 127.217 312.366 126.567 312.698 126.497V126.497ZM309.169 127.48C311.31 126.512 311.998 128.954 311.998 128.954C312.599 130.603 311.258 131.135 311.258 131.135L275.434 150.643L273.382 146.967L309.169 127.48Z" fill="#C3CCD1"/>
</g>
<g style="mix-blend-mode:multiply" opacity="0.5">
<path d="M310.293 122.478C309.743 122.826 310.173 123.75 310.173 123.75C310.375 124.575 309.129 125.179 309.129 125.179L309.119 125.193L272.013 145.399L272.024 145.42L272.536 146.359L309.225 126.38C309.652 126.172 310.142 126.134 310.596 126.274C311.05 126.413 311.434 126.719 311.671 127.13C311.671 127.13 312.024 127.642 311.908 127.224C311.791 126.806 311.08 125.637 311.382 125.101C311.684 124.566 312.167 124.637 312.881 125.879L315.402 130.509C315.459 130.621 315.485 130.747 315.477 130.872C315.47 130.997 315.428 131.118 315.357 131.222C315.286 131.326 315.189 131.409 315.075 131.462C314.961 131.515 314.834 131.536 314.709 131.523C314.789 131.564 314.877 131.586 314.966 131.589C315.055 131.591 315.144 131.573 315.225 131.536C315.345 131.502 315.456 131.442 315.551 131.361C315.645 131.28 315.722 131.18 315.775 131.068C315.828 130.955 315.856 130.832 315.857 130.708C315.859 130.583 315.834 130.46 315.784 130.346L311.596 122.654C311.527 122.55 311.437 122.463 311.331 122.396C311.226 122.33 311.108 122.287 310.984 122.271C310.861 122.254 310.735 122.264 310.616 122.299C310.497 122.335 310.387 122.396 310.293 122.478V122.478Z" fill="#B5BDC2"/>
</g>
<g style="mix-blend-mode:overlay" opacity="0.7">
<path d="M275.514 150.155L311.216 130.714C311.492 130.513 311.679 130.213 311.738 129.876C311.796 129.54 311.722 129.194 311.53 128.912C311.53 128.912 311.236 128.281 310.388 128.644L274.455 148.211L275.514 150.155Z" fill="white"/>
</g>
<path d="M281.147 135.581C281.147 135.581 280.784 148.713 286.674 148.821C290.963 148.9 294.507 146.53 296.117 145.235C296.774 144.707 297.255 143.992 297.498 143.184C298.16 140.988 298.962 136.287 295.341 132.593L281.147 135.581Z" fill="#EFCECA"/>
<path d="M164.031 340.294C159.316 329.067 152.845 318.17 143.051 310.936C129.863 301.195 111.963 299.141 96.0767 301.281C80.6402 303.361 68.6912 316.026 60.0323 328.038C49.2069 343.068 40.9988 359.819 35.7544 377.584L35.681 377.834H173.871C172.37 364.92 169.057 352.283 164.031 340.294V340.294Z" fill="#9F6EED"/>
<path d="M272.88 225.955C272.88 225.955 269.996 235.71 271.33 237.208C272.665 238.706 273.714 239.024 274.916 237.088C276.117 235.152 272.88 225.955 272.88 225.955Z" fill="#FF7E69"/>
<path d="M273.512 167.013C273.512 167.013 272.27 172.022 272.845 172.791C273.42 173.56 273.872 173.724 274.389 172.729C274.907 171.735 273.512 167.013 273.512 167.013Z" fill="#FF7E69"/>
<path d="M273.512 196.571C273.512 196.571 272.27 202.451 272.845 203.354C273.42 204.257 273.872 204.449 274.389 203.282C274.907 202.115 273.512 196.571 273.512 196.571Z" fill="#FF7E69"/>
<path d="M139.914 152.625C144.048 156.29 146.656 160.863 149.117 165.363C151.618 169.83 153.614 174.56 155.068 179.468C156.177 183.442 158.959 187.858 155.851 191.124C149.776 197.51 135.768 197.421 127.723 197.595C122.031 197.718 115.778 197.627 110.867 195.035C108.557 193.816 106.83 192.07 106.124 189.886C105.612 188.046 105.494 186.12 105.777 184.232C106.57 176.762 109.73 169.583 113.614 162.789C116.495 157.748 120.06 150.431 127.519 148.971C132.703 147.957 136.722 149.795 139.914 152.625Z" fill="#FFD9D2"/>
<path d="M115.091 172.711C115.091 172.711 110.681 169.621 109.693 172.657C109.096 174.313 108.953 176.098 109.277 177.828C109.277 177.828 110.391 181.512 112.333 181.601L115.091 172.711Z" fill="#FFD9D2"/>
<path d="M99.1597 161.577C101.945 158.794 105.09 156.398 108.512 154.452C106.819 152.855 105.565 150.849 104.87 148.629C104.175 146.408 104.062 144.045 104.542 141.768C105.022 139.491 106.079 137.375 107.612 135.624C109.144 133.873 111.101 132.545 113.295 131.767C115.488 130.99 117.845 130.788 120.138 131.183C122.432 131.578 124.585 132.555 126.393 134.022C128.2 135.488 129.6 137.394 130.459 139.557C131.318 141.719 131.607 144.067 131.298 146.373C135.337 145.628 139.474 145.347 143.47 146.333C148.365 147.54 153.094 151.074 154.372 156.026C155.622 160.87 152.553 164.667 147.938 165.727C147.636 165.797 145.346 166.279 145.042 166.326C140.873 166.981 140.046 167.307 136.667 167.131C134.317 167.008 130.073 166.545 128.784 166.754C127.652 166.938 126.829 167.966 125.836 168.471C124.333 169.176 122.661 169.444 121.013 169.245C120.187 169.166 119.37 169.013 118.572 168.787C117.846 168.583 117.087 168.243 116.45 168.857C115.108 170.149 116.42 174.263 117.398 175.888C118.323 177.423 119.329 177.828 120.504 179.193C122.397 181.391 122.21 181.732 121.929 184.55C121.607 187.778 120.274 190.986 117.753 193.046C114.142 195.998 108.728 196.076 104.21 194.484C98.4284 192.447 93.4892 187.692 92.0067 181.874C90.1352 174.529 93.8777 166.923 99.1597 161.577Z" fill="#402D5F"/>
<path d="M115.849 168.41L117.228 178.247C117.296 178.553 117.443 178.835 117.655 179.066C117.867 179.297 118.136 179.468 118.435 179.561C120.668 180.267 133.416 180.872 142.403 180.081C143.001 180.028 143.532 177.402 144.158 177.329C144.712 177.263 146.6 179.345 147.18 179.333C148.601 179.305 149.915 178.572 153.824 176.829C154.221 176.672 154.572 176.417 154.844 176.088C155.115 175.759 155.298 175.366 155.376 174.947C155.934 171.082 155.051 167.148 152.895 163.892C152.703 163.602 152.412 163.392 152.075 163.301C151.739 163.211 151.382 163.246 151.069 163.4C148.358 164.74 142.111 167.859 119.98 165.855C118.411 165.713 115.627 165.888 115.849 168.41Z" fill="white" stroke="#B5B0B0" stroke-miterlimit="10"/>
<path d="M419.248 82.3332L406.115 74.8916" stroke="#9F6EED" stroke-miterlimit="10"/>
<path d="M424.121 76.8194L422.106 63.2388" stroke="#9F6EED" stroke-miterlimit="10"/>
<path d="M422.88 91.4629L410.415 99.9615" stroke="#9F6EED" stroke-miterlimit="10"/>
<path d="M430.197 92.0903L449.416 118.167" stroke="#9F6EED" stroke-miterlimit="10"/>
<path d="M435.357 84.9067L459.601 86.0116" stroke="#9F6EED" stroke-miterlimit="10"/>
<path d="M432.805 78.4944L446.269 60.8159" stroke="#9F6EED" stroke-miterlimit="10"/>
<path d="M407.485 105.098C409.542 105.098 411.21 103.43 411.21 101.373C411.21 99.3153 409.542 97.6475 407.485 97.6475C405.428 97.6475 403.76 99.3153 403.76 101.373C403.76 103.43 405.428 105.098 407.485 105.098Z" fill="#FF7E69"/>
<path d="M402.937 77.0074C404.994 77.0074 406.662 75.3396 406.662 73.2823C406.662 71.2249 404.994 69.5571 402.937 69.5571C400.879 69.5571 399.211 71.2249 399.211 73.2823C399.211 75.3396 400.879 77.0074 402.937 77.0074Z" fill="#FF7E69"/>
<path d="M422.006 64.1173C424.064 64.1173 425.732 62.4495 425.732 60.3921C425.732 58.3348 424.064 56.667 422.006 56.667C419.949 56.667 418.281 58.3348 418.281 60.3921C418.281 62.4495 419.949 64.1173 422.006 64.1173Z" fill="#FF7E69"/>
<path d="M448.471 61.7642C450.528 61.7642 452.196 60.0964 452.196 58.0391C452.196 55.9818 450.528 54.314 448.471 54.314C446.413 54.314 444.746 55.9818 444.746 58.0391C444.746 60.0964 446.413 61.7642 448.471 61.7642Z" fill="#FF7E69"/>
<path d="M462.321 89.5411C464.379 89.5411 466.046 87.8733 466.046 85.816C466.046 83.7586 464.379 82.0908 462.321 82.0908C460.264 82.0908 458.596 83.7586 458.596 85.816C458.596 87.8733 460.264 89.5411 462.321 89.5411Z" fill="#FF7E69"/>
<path d="M451.107 123.902C453.165 123.902 454.833 122.234 454.833 120.177C454.833 118.119 453.165 116.452 451.107 116.452C449.05 116.452 447.382 118.119 447.382 120.177C447.382 122.234 449.05 123.902 451.107 123.902Z" fill="#FF7E69"/>
<path d="M426.967 93.056C431.61 93.056 435.374 89.2923 435.374 84.6496C435.374 80.0069 431.61 76.2432 426.967 76.2432C422.324 76.2432 418.561 80.0069 418.561 84.6496C418.561 89.2923 422.324 93.056 426.967 93.056Z" fill="#F9AFA7"/>
</g>
<defs>
<clipPath id="clip0_6_449">
<rect width="502" height="382" fill="white"/>
</clipPath>
</defs>
</svg>
