<svg xmlns="http://www.w3.org/2000/svg" version="1.1" xmlns:xlink="http://www.w3.org/1999/xlink" xmlns:svgjs="http://svgjs.dev/svgjs" width="2000" height="171" viewBox="0 0 2000 171"><g transform="matrix(1,0,0,1,-1.2121212121212466,0.41208408338650315)"><svg viewBox="0 0 396 34" data-background-color="#000000" preserveAspectRatio="xMidYMid meet" height="171" width="2000" xmlns="http://www.w3.org/2000/svg" xmlns:xlink="http://www.w3.org/1999/xlink"><g id="tight-bounds" transform="matrix(1,0,0,1,0.2400000000000091,-0.08193484698912812)"><svg viewBox="0 0 395.52 34.16386969397828" height="34.16386969397828" width="395.52"><g><svg viewBox="0 0 395.52 34.16386969397828" height="34.16386969397828" width="395.52"><g><svg viewBox="0 0 395.52 34.16386969397828" height="34.16386969397828" width="395.52"><g id="textblocktransform"><svg viewBox="0 0 395.52 34.16386969397828" height="34.16386969397828" width="395.52" id="textblock"><g><svg viewBox="0 0 395.52 34.16386969397828" height="34.16386969397828" width="395.52"><g transform="matrix(1,0,0,1,0,0)"><svg width="395.52" viewBox="2.2 -35 405.18 35" height="34.16386969397828" data-palette-color="#48937e"><path d="M40.85-5L40.85 0 18.3 0Q14.65 0 11.7-1.35 8.75-2.7 6.63-5.1 4.5-7.5 3.35-10.68 2.2-13.85 2.2-17.5L2.2-17.5Q2.2-21.1 3.35-24.28 4.5-27.45 6.63-29.88 8.75-32.3 11.7-33.65 14.65-35 18.3-35L18.3-35 40.85-35 40.85-30 18.3-30Q14.85-30 12.38-28.33 9.9-26.65 8.55-23.8 7.2-20.95 7.2-17.5L7.2-17.5Q7.2-14.05 8.55-11.23 9.9-8.4 12.38-6.7 14.85-5 18.3-5L18.3-5 40.85-5ZM72.6-5L72.6 0 46.3 0 46.3-27.5 51.3-27.5 51.3-5 72.6-5ZM105.55-5.05L105.55 0 76.84 0 76.84-27.6 105.55-27.6 105.55-22.55 81.9-22.55 81.9-5.05 105.55-5.05ZM102.34-16.45L102.34-11.4 84.25-11.4 84.25-16.45 102.34-16.45ZM136.39-27.5L142.04-27.5 127.99 0 122.29 0 108.14-27.5 113.84-27.5 125.14-5.55 136.39-27.5ZM174.99-5.05L174.99 0 146.29 0 146.29-27.6 174.99-27.6 174.99-22.55 151.34-22.55 151.34-5.05 174.99-5.05ZM171.79-16.45L171.79-11.4 153.69-11.4 153.69-16.45 171.79-16.45ZM204.79-7.85L212.89 0 206.09 0 198.29-7.45 188.14-7.45 188.14-12.4 201.99-12.4Q204.09-12.4 205.56-13.93 207.04-15.45 207.04-17.5L207.04-17.5Q207.04-19.6 205.56-21.08 204.09-22.55 201.99-22.55L201.99-22.55 185.54-22.55 185.54 0 180.54 0 180.54-27.5 201.99-27.5Q204.79-27.5 207.04-26.15 209.29-24.8 210.64-22.53 211.99-20.25 211.99-17.5L211.99-17.5Q211.99-15.25 211.06-13.28 210.14-11.3 208.51-9.88 206.89-8.45 204.79-7.85L204.79-7.85ZM259.74-10L259.74-10Q259.74-7.25 258.38-4.98 257.04-2.7 254.76-1.35 252.49 0 249.74 0L249.74 0 226.03 0 226.03-5 249.74-5Q251.79-5 253.26-6.48 254.74-7.95 254.74-10L254.74-10Q254.74-12.05 253.26-13.53 251.79-15 249.74-15L249.74-15 226.03-15 226.03-20 244.74-20Q246.79-20 248.26-21.48 249.74-22.95 249.74-25L249.74-25Q249.74-27.05 248.26-28.53 246.79-30 244.74-30L244.74-30 223.53-30 223.53 0 218.53 0 218.53-35 244.74-35Q247.49-35 249.76-33.65 252.04-32.3 253.39-30.03 254.74-27.75 254.74-25L254.74-25Q254.74-23.45 254.29-22.03 253.84-20.6 253.04-19.4L253.04-19.4Q255.99-18.4 257.86-15.83 259.74-13.25 259.74-10ZM297.38-13.8L297.38-13.8Q297.38-10 295.81-6.88 294.23-3.75 291.38-1.88 288.53 0 284.73 0L284.73 0 276.03 0Q272.23 0 269.36-1.88 266.48-3.75 264.91-6.88 263.33-10 263.33-13.8L263.33-13.8Q263.33-17.6 264.91-20.7 266.48-23.8 269.36-25.65 272.23-27.5 276.03-27.5L276.03-27.5 284.73-27.5Q288.53-27.5 291.38-25.65 294.23-23.8 295.81-20.7 297.38-17.6 297.38-13.8ZM292.38-13.8L292.38-13.8Q292.38-16.2 291.48-18.2 290.58-20.2 288.86-21.38 287.13-22.55 284.73-22.55L284.73-22.55 276.03-22.55Q273.63-22.55 271.91-21.38 270.18-20.2 269.26-18.2 268.33-16.2 268.33-13.8L268.33-13.8Q268.33-11.4 269.26-9.4 270.18-7.4 271.91-6.2 273.63-5 276.03-5L276.03-5 284.73-5Q287.13-5 288.86-6.2 290.58-7.4 291.48-9.4 292.38-11.4 292.38-13.8ZM335.33-13.8L335.33-13.8Q335.33-10 333.75-6.88 332.18-3.75 329.33-1.88 326.48 0 322.68 0L322.68 0 313.98 0Q310.18 0 307.31-1.88 304.43-3.75 302.85-6.88 301.28-10 301.28-13.8L301.28-13.8Q301.28-17.6 302.85-20.7 304.43-23.8 307.31-25.65 310.18-27.5 313.98-27.5L313.98-27.5 322.68-27.5Q326.48-27.5 329.33-25.65 332.18-23.8 333.75-20.7 335.33-17.6 335.33-13.8ZM330.33-13.8L330.33-13.8Q330.33-16.2 329.43-18.2 328.53-20.2 326.81-21.38 325.08-22.55 322.68-22.55L322.68-22.55 313.98-22.55Q311.58-22.55 309.85-21.38 308.13-20.2 307.2-18.2 306.28-16.2 306.28-13.8L306.28-13.8Q306.28-11.4 307.2-9.4 308.13-7.4 309.85-6.2 311.58-5 313.98-5L313.98-5 322.68-5Q325.08-5 326.81-6.2 328.53-7.4 329.43-9.4 330.33-11.4 330.33-13.8ZM357.33-16.05L373.43 0 366.68 0 353.48-13.25 345.88-7.75 345.88 0 340.88 0 340.88-27.5 345.88-27.5 345.88-13.5 365.53-27.5 373.18-27.5 357.33-16.05ZM407.38-8.1L407.38-8.1Q407.38-5.85 406.3-4.03 405.23-2.2 403.38-1.1 401.52 0 399.27 0L399.27 0 375.93 0 375.93-5 399.27-5Q400.57-5 401.5-5.9 402.43-6.8 402.43-8.1L402.43-8.1Q402.43-9.4 401.5-10.33 400.57-11.25 399.27-11.25L399.27-11.25 383.98-11.25Q381.77-11.25 379.95-12.35 378.13-13.45 377.02-15.3 375.93-17.15 375.93-19.4L375.93-19.4Q375.93-21.6 377.02-23.45 378.13-25.3 379.95-26.4 381.77-27.5 383.98-27.5L383.98-27.5 405.52-27.5 405.52-22.55 383.98-22.55Q382.73-22.55 381.8-21.63 380.88-20.7 380.88-19.4L380.88-19.4Q380.88-18.1 381.8-17.18 382.73-16.25 383.98-16.25L383.98-16.25 399.27-16.25Q401.52-16.25 403.38-15.15 405.23-14.05 406.3-12.2 407.38-10.35 407.38-8.1Z" opacity="1" transform="matrix(1,0,0,1,0,0)" fill="#ffffff" class="wordmark-text-0" data-fill-palette-color="primary" id="text-0"></path></svg></g></svg></g></svg></g></svg></g><g></g></svg></g><defs></defs></svg><rect width="395.52" height="34.16386969397828" fill="none" stroke="none" visibility="hidden"></rect></g></svg></g></svg>