<?xml version="1.0" encoding="UTF-8"?><svg id="Layer_1" xmlns="http://www.w3.org/2000/svg" viewBox="0 0 1180.2 977.87"><defs><style>.cls-1{fill:#fff;}.cls-2{fill:#fd8801;}</style></defs><path d="M899.6,796.22c-16.32,29.37-37.34,55.11-61.51,78.27-56.25,53.91-122.95,87.32-199.93,99.07-151.63,23.15-299.86-48.46-376.67-181.69-.49-.85-.68-1.86-1.01-2.8,.93,.32,1.98,.47,2.78,1,16.63,11,35.09,15.73,54.83,16.06,6.84,.12,13.28,2.03,19,5.51,10.78,6.56,22.4,8.18,34.61,6.99,4.45-.43,8.37,.27,12.46,2.25,11.29,5.45,23.37,7.49,35.88,7.29,4.08-.07,8.27-.48,11.48-2.83,5.06-3.7,10.47-3.38,16.2-3.3,21.93,.28,43.08-3.74,63.03-13.01,7.86-3.65,14.29-9.02,13.78-18.92-.48-9.3-7.52-13.06-14.86-15.54-18.13-6.13-27.41-18.58-29.79-37.4-1.45-11.49-2.94-23.47-10.23-33.06-5.84-7.67-9.06-16.16-11.4-25.25-1.58-6.12-3.04-12.3-5.15-18.25-8.17-22.92-10.7-46.62-10.5-70.76,.05-5.33,.21-10.67-.09-15.99-.56-9.82-3.45-19.04-8.8-27.28-4.71-7.25-7.4-7.08-12.06,.12-6.15,9.51-12.09,19.17-18.47,28.52-11.28,16.52-22.98,32.7-38.43,45.79-31.04,26.29-61.33,53.4-87.93,84.33-3.45,4.01-7.58,6.15-12.67,7.28-12.82,2.83-25.15-.13-37.55-2.6-8.25-31.69-13.56-63.81-13.96-96.62-2.2-180.62,122.4-327.32,283.37-365.27,197.03-46.46,392.91,71.38,443.81,267.48,16.57,63.85,15.45,127.91-1.8,191.64-.69,2.57-1.29,5.16-1.93,7.74-10.01,2.88-20.24,3.87-30.6,3.28-7.17-.4-13.46-2.39-18.46-8.32-21.56-25.52-45.97-48.23-71.29-69.9-19.06-16.31-37.37-33.15-51.06-54.44-6.84-10.64-14-21.09-20.84-31.74-6.39-9.96-9.42-9.93-15.29,.61-1.29,2.32-2.48,4.75-3.31,7.26-2.98,8.91-4.41,18.08-4.23,27.5,.26,13.32,.07,26.6-1.45,39.9-2.53,22.03-11.11,42.41-16.48,63.66-1.05,4.15-2.42,8.41-5.37,11.72-6.47,7.23-9.34,16.02-11.18,25.25-1.37,6.85-2.18,13.83-3.91,20.58-3.24,12.66-10.63,22-23.07,26.98-4.31,1.73-8.76,3.42-12.62,5.93-9.43,6.12-10.26,16.77-2.22,24.68,4.86,4.79,10.99,7.57,17.28,9.75,16.45,5.71,33.35,9.38,50.87,8.92,7.41-.2,14.57-.61,21.02,4.16,1.72,1.27,4.39,1.56,6.67,1.7,13.83,.89,27.31-.58,39.86-6.92,3.38-1.71,6.44-2.52,10.39-1.96,12.17,1.72,23.83-.03,34.65-6.44,6.37-3.77,13.53-6.38,20.84-6.33,19.25,.14,36.71-5.5,53.31-14.61Zm-86.98-205.9c1.04-.28,1.77-.88,1.95-2,10.87-6.88,15.24-18.02,19.18-29.41,5.04-14.58,2.85-28.23-5.69-40.93-2.97-4.42-6.24-8.65-9.21-13.08-8.04-12-10.27-24.96-6.83-39.09,2.23-9.18,6.12-17.56,10.56-25.78,1.17-2.16,3.25-4,3.45-7.73-8.54,4.16-13.89,10.42-18.85,16.95-15.53,20.47-16.2,44.84-1.9,66.08,3.53,5.25,7.48,10.22,11.12,15.39,4.39,6.24,6.12,13.35,5.54,20.84-.77,9.97-2.25,19.85-6.06,29.23-.98,2.4-2.6,4.74-1.29,7.55-1.7-.31-1.88,.79-1.89,2.04l-.34,.14,.25-.22Zm-276.09-116l.52,.38-.63-.26c-.37-14.83-7.61-25.9-19.86-33.31-8.28-5.01-17.63-5.58-26.61-.92-5.36,2.78-7.93,7.73-7.19,12.99,.72,5.2,4.66,9.31,10.55,10.48,2.56,.51,5.29,.54,7.91,.36,13.05-.88,24.94,2.08,35.32,10.29Zm77.99-32.09c7.7-1.68,14.43-6.37,22.72-6.51,9.71-.16,19.27,.33,28.61,3.03,3.89,1.13,7.78,1.72,11.79,1.43,6.48-.46,11.48-3.52,14.31-9.33,3.06-6.3,1.67-12.29-2.48-17.73-2.92-3.82-6.89-6.3-11.29-7.92-11.42-4.2-22.92-4.38-33.8,1.43-14.65,7.82-24.62,19.81-29.74,35.71-.13,.19-.25,.39-.38,.58,.08-.23,.17-.46,.25-.7Zm-31.84-141.8c-6.4,.12-9.74,5.06-13.49,8.99-19.14,20.09-24.69,50.83-5.56,75.14,2.25,2.86,4.29,5.9,6.58,8.73,7.84,9.7,9.69,20.66,7.7,32.75-1.74,10.54-4.65,20.63-9.33,30.23l-.27,.33,.18-.43c4.98-.25,7.3-4.25,9.97-7.45,5.61-6.71,9.16-14.57,11.78-22.87,4.68-14.85,3.21-28.83-5.92-41.72-2.69-3.79-5.44-7.54-8.1-11.35-7.75-11.12-10.6-23.14-8.29-36.77,2.22-13.12,8.79-24.18,14.6-35.69,.2-.15,.43-.28,.58-.47,.08-.09,.02-.3,.03-.45-.16,.34-.31,.68-.47,1.03Zm-250.03,289.91c10.28-7.21,15.69-17.62,20.05-29.06,6.43-16.84,3.58-31.96-6.78-46.16-2.75-3.76-5.45-7.57-8.05-11.43-7.3-10.82-8.93-22.76-6.63-35.36,1.94-10.62,6.53-20.21,11.81-29.52,1.01-1.78,3.57-3.21,1.72-6.53-3.03,2.33-6.07,4.34-8.72,6.78-20.71,19.07-30.78,50.33-9.26,78.96,2.8,3.72,5.57,7.48,8.32,11.24,4.71,6.43,6.74,13.6,6.33,21.58-.54,10.7-1.97,21.14-6.5,31.05-1.18,2.57-3.1,5.27-2.2,8.51l-.38,.11,.28-.18Zm344.64-86.88c-62.67,19.68-124.96,19.93-188.11-.49,1.68,9.85,3.32,18.94,4.77,28.06,1.75,10.96,7.94,16.4,19.04,18.44,41.64,7.65,83.31,9.03,125.14,2.25,7.86-1.27,15.79-2.33,23.44-4.77,6.15-1.96,10.97-5.32,11.96-12.02,1.55-10.44,3.48-20.86,3.76-31.47Zm-81.23,146.11c.87,0,1.74,0,2.61,0,0-21.94,.05-43.88-.06-65.82-.02-2.94-.51-6-1.41-8.8-2.3-7.17-7.18-10.67-13.97-10.51-6.45,.15-10.46,3.43-13.04,10.37-2.03,5.46-1.78,11.12-1.68,16.76,.75,41.55,1.53,83.1,2.27,124.65,.07,4,.3,7.96,1.53,11.82,2.09,6.54,5.82,10.05,10.83,10.03,5.44-.03,9.95-3.99,11.21-10.83,1.02-5.53,1.58-11.22,1.63-16.84,.19-20.27,.07-40.55,.07-60.82Zm33.64-72.23c-.23-1.48-.46-4.83-1.31-8.02-1.31-4.9-4.46-8.14-9.76-8.66-5.3-.52-8.93,2.15-11.41,6.52-2.01,3.55-2.54,7.51-2.66,11.57-.6,18.97-1.27,37.95-1.9,56.92-.3,8.99-.36,17.99-.9,26.96-1.12,18.64-1.18,37.29-1.27,55.94,0,1.99,.1,4.02,.48,5.97,.9,4.53,2.97,8.49,8.03,8.96,5.46,.51,7.55-3.74,8.63-8.05,1.61-6.46,2.31-13.09,2.72-19.75,.89-14.62,1.94-29.24,3.02-43.85,2.03-27.56,4.12-55.11,6.33-84.5Zm-64.88,107.11h-.37c-.78-33.28-1.6-66.56-2.32-99.84-.1-4.7-.69-9.33-1.96-13.81-1.85-6.55-6.48-9.88-12.36-9.48-5.39,.36-9.06,3.84-10.56,10.36-1.14,4.93-.62,9.95-.29,14.93,2.05,30.88,4.1,61.76,6.28,92.63,.94,13.27,2.21,26.52,3.22,39.79,.31,4.05,.94,8.01,3.14,11.43,3.4,5.27,9.7,4.98,12.99-.42,1.99-3.28,2.17-6.97,2.2-10.63,.08-11.65,.03-23.3,.03-34.96Zm15.95-176.15c28.37,.37,54.34-2.84,79.8-9.92,7.54-2.1,9.19-4.19,9.9-11.65,1.16-12.15-6.19-21-18.7-22.56-13.56-1.68-25.66,2.24-36.79,9.68-9.4,6.27-18.53,12.95-28.07,19-9.98,6.33-20.82,10.18-32.91,10.02-11.95-.17-23.01-2.58-32.58-10.32-4.35-3.52-8.93-7.15-15.21-6.31-3.69,.49-6.25,2.51-6.92,6.16-.79,4.3,3,4.52,5.66,5.49,2.18,.8,4.45,1.36,6.71,1.9,23.36,5.56,46.99,8.98,69.12,8.53Zm43.51,192.71c0,5.06-.24,9.4,.07,13.7,.29,4-1.3,10.14,4.7,10.29,4.7,.11,4.85-5.65,5.37-9.44,2.11-15.47,4.23-30.94,5.87-46.46,3.39-32.04,6.59-64.1,11.38-95.97,.51-3.39,.56-6.59-.87-9.74-1.37-3-3.63-4.69-6.94-4.83-3.34-.14-5.64,1.51-7.24,4.36-1.51,2.69-1.9,5.61-2.11,8.63-.77,10.6-1.64,21.2-2.48,31.8-2.6,32.79-5.2,65.58-7.74,97.66Zm-83.52-.77l.28-.02c-2.98-42.16-5.93-84.32-9-126.47-.24-3.27-.99-6.62-2.16-9.68-1.27-3.32-3.99-5.5-7.81-4.93-3.96,.59-6.99,2.85-7.23,7.07-.24,4.29-.12,8.67,.47,12.93,4.8,34.61,7.86,69.41,11.53,104.15,1.33,12.55,2.26,25.19,5.24,37.51,.62,2.58,1.59,5.51,5.15,4.82,2.68-.52,3.45-3,3.49-5.41,.1-6.65,.04-13.31,.04-19.97Zm-14.16,12.53c-.16-1.96-.24-3.62-.44-5.27-5.93-47.44-11.87-94.89-17.84-142.32-.85-6.71-3.87-11.08-6.43-9.53-4.34,2.62-2.71,6.97-2.16,10.83,5.77,40.76,11.55,81.53,17.34,122.29,1.21,8.55,2.48,17.09,3.78,25.62,.31,2.03,1.1,4.53,3.23,4.48,3.45-.09,2.26-3.29,2.53-5.4,.04-.33,0-.66,0-.7Zm140.03-149.08c0-1.44,.04-2.78,0-4.1-.07-2.06-.38-4.23-2.9-4.45-2.35-.2-3.66,1.79-4.17,3.65-1.05,3.83-1.85,7.76-2.38,11.7-5.97,45.12-11.88,90.26-17.75,135.4-.43,3.28-.49,6.61-.52,9.93,0,.87,.4,1.94,1.66,2.19,1.57,.31,2.85-.51,3.15-1.7,1.04-4.18,1.92-8.42,2.55-12.68,4.56-31.23,9.03-62.47,13.56-93.7,2.24-15.45,4.56-30.89,6.82-46.22Zm-88.97,190.38c20.28,.13,37.87-2.97,55.04-8.54,3.12-1.01,6.43-1.9,8.68-4.63,1.12-1.36,1.67-2.9,.66-4.55-.76-1.23-2.11-1.76-3.43-1.46-2.9,.66-5.77,1.5-8.61,2.4-32,10.14-63.84,11.81-95.44-1.64-2.12-.9-4.4-1.68-6.67-1.88-3.3-.29-4.04,1.88-2.97,4.55,1.64,4.1,5.5,5.62,9.21,7.06,14.69,5.72,29.91,8.8,43.54,8.69Z"/><path class="cls-1" d="M226.6,710.04c12.4,2.47,24.74,5.43,37.55,2.6,5.09-1.12,9.22-3.27,12.67-7.28,26.6-30.93,56.88-58.04,87.93-84.33,15.46-13.09,27.15-29.26,38.43-45.79,6.38-9.35,12.32-19.01,18.47-28.52,4.66-7.2,7.35-7.37,12.06-.12,5.35,8.24,8.24,17.46,8.8,27.28,.3,5.31,.14,10.66,.09,15.99-.21,24.14,2.33,47.84,10.5,70.76,2.12,5.94,3.58,12.12,5.15,18.25,2.34,9.09,5.56,17.57,11.4,25.25,7.3,9.59,8.78,21.57,10.23,33.06,2.38,18.82,11.65,31.27,29.79,37.4,7.34,2.48,14.39,6.24,14.86,15.54,.51,9.9-5.92,15.27-13.78,18.92-19.94,9.27-41.1,13.29-63.03,13.01-5.73-.07-11.14-.4-16.2,3.3-3.21,2.35-7.4,2.76-11.48,2.83-12.51,.2-24.6-1.83-35.88-7.29-4.09-1.98-8.01-2.68-12.46-2.25-12.21,1.19-23.83-.43-34.61-6.99-5.71-3.48-12.16-5.39-19-5.51-19.74-.33-38.2-5.06-54.83-16.06-.8-.53-1.85-.68-2.78-1-18.35-4.36-35.39-11.17-47.92-26.17-1.81-2.17-4.25-3.1-6.61-4.23-19.21-9.18-20.02-30.11-17.48-43.45,.61-3.23,2.83-4.27,5.53-4.81,6.85-1.37,13.74-2.09,20.74-1.35,3.94,.42,7.9,.66,11.86,.98Zm243.15,100.48c-2.91-7.99-9.54-12.06-16.34-15.21-13.97-6.47-19.24-17.51-19.03-32.14,.16-10.99,.21-21.98,.24-32.96,.02-7.41-1.11-14.74-4.26-21.4-10.12-21.42-10.54-43.81-6.83-66.5,4.36-26.66,8.06-53.32,6.77-80.43-.21-4.46,0-9.05-3.36-14.14,.12,16.68-1.98,31.86-3.5,47.09-2.55,25.51-4.73,51.04-4.77,76.71-.02,12.75,1.67,25.2,5.74,37.32,3.88,11.55,4.69,23.34,3.31,35.47-.82,7.25-1.03,14.65-.64,21.93,.81,15.08,6.98,26.84,21.86,32.78,7.36,2.94,14.23,6.87,20.81,11.48Z"/><path class="cls-1" d="M899.6,796.22c-16.6,9.12-34.06,14.75-53.31,14.61-7.32-.05-14.47,2.55-20.84,6.33-10.82,6.41-22.48,8.16-34.65,6.44-3.95-.56-7.01,.26-10.39,1.96-12.55,6.34-26.04,7.81-39.86,6.92-2.27-.15-4.95-.44-6.67-1.7-6.45-4.77-13.61-4.35-21.02-4.16-17.52,.46-34.42-3.2-50.87-8.92-6.29-2.18-12.42-4.96-17.28-9.75-8.04-7.91-7.21-18.56,2.22-24.68,3.87-2.51,8.31-4.21,12.62-5.93,12.44-4.98,19.83-14.32,23.07-26.98,1.73-6.75,2.54-13.73,3.91-20.58,1.85-9.23,4.72-18.01,11.18-25.25,2.96-3.31,4.32-7.57,5.37-11.72,5.37-21.25,13.94-41.63,16.48-63.66,1.53-13.3,1.72-26.57,1.45-39.9-.19-9.42,1.25-18.59,4.23-27.5,.84-2.51,2.02-4.94,3.31-7.26,5.87-10.54,8.91-10.57,15.29-.61,6.83,10.65,13.99,21.09,20.84,31.74,13.69,21.29,32,38.13,51.06,54.44,25.32,21.67,49.73,44.38,71.29,69.9,5,5.92,11.29,7.91,18.46,8.32,10.37,.59,20.59-.4,30.6-3.28,9.92-.69,19.84-1.77,29.78-.58,8.77,1.05,10.06,2.47,10.65,11.19,1.17,17.31-3.4,31.54-20.76,39.06-1.74,.75-3.33,2.19-4.59,3.65-11.09,12.79-25.54,19.71-41.51,24.05-3.48,.95-7.21,1.27-10.06,3.85Zm-204.9,20.55c7.22-7.08,15-10.6,22.77-14.12,12.15-5.51,17.94-15.27,19.2-28.22,.94-9.67-.09-19.3-.38-28.94-.31-10.35-.69-20.74,2.92-30.65,6.06-16.64,6.58-33.84,6.05-51.25-.7-23.32-2.49-46.57-5.24-69.71-1.54-12.98-1.21-26.2-4.68-39-.94,7.64-1.8,15.27-1.73,22.89,.19,21.35,2.32,42.53,6.16,63.56,3.99,21.86,5.8,43.87-3.21,64.92-6.08,14.2-7.98,28.72-7.47,43.88,.27,7.98,.28,15.99,.05,23.97-.31,10.92-5.49,18.88-15.17,24.09-4.68,2.52-9.25,5.33-13.52,8.48-2.7,1.99-5.93,4.15-5.74,10.11Z"/><path d="M144.44,199.66c-.03-22.46,16.92-41.28,40.31-43.06,5.27-.4,8.03-1.02,9.28-7.11,3.53-17.21,14.57-28.49,31.41-32.65,17.47-4.31,33.03,.19,45.03,14.32,28.67,33.76,57.32,67.54,85.92,101.36,6.3,7.45,6.06,9.16-1.18,15.47-1.26,1.09-2.51,2.19-3.84,3.2-5.76,4.36-7.6,4.35-12.52-1.29-9.19-10.54-18.13-21.3-27.18-31.96-19.61-23.11-39.25-46.18-58.8-69.34-4.03-4.78-8.49-8.29-15.08-8.54-8.17-.31-14.28,3.11-18.17,10.05-3.72,6.62-3.38,13.43,.87,19.82,1.47,2.21,3.26,4.21,4.98,6.24,26.92,31.75,53.85,63.49,80.78,95.23,1.29,1.52,2.64,3.01,3.85,4.6,.8,1.05,1.83,2.19,2,3.4,1.2,8.21-6.55,9.95-10.75,14.12-3.07,3.05-6.74,2.1-9.64-1.06-1.35-1.47-2.59-3.04-3.88-4.56-26.93-31.75-53.85-63.5-80.78-95.23-1.94-2.28-3.82-4.65-6.03-6.64-7.56-6.8-17.84-6.81-25.37-.2-7.64,6.69-9.06,16.67-3.42,25.18,1.65,2.48,3.7,4.71,5.63,6.99,26.69,31.51,53.39,63.02,80.07,94.53,1.72,2.03,3.43,4.08,5,6.22,1.49,2.03,1.98,4.36,.36,6.49-3.25,4.29-7.38,7.7-11.97,10.4-3.03,1.78-5.82,.25-7.98-2.17-2.44-2.73-4.77-5.56-7.14-8.36-26.49-31.24-52.92-62.54-79.52-93.69-7.64-8.95-12.49-18.78-12.25-31.74Z"/><path d="M964,279.77c-17.88,13.87-35.22,27.32-52.56,40.76-2.1,1.63-4.14,3.36-6.36,4.83-3.93,2.6-7.51,2.15-10.5-1.64-.21-.26-.41-.52-.63-.77-9.84-11.04-9.69-12.67,2.01-21.75,40.49-31.42,80.97-62.83,121.47-94.24,2.1-1.63,4.14-3.37,6.39-4.78,5.82-3.65,11.84-3.28,16.11,1.96,7.98,9.79,16.12,19.58,22.91,30.19,10.63,16.58,7.45,39.54-6.72,53.23-7.18,6.93-15.26,12.9-23.65,18.31-6.54,4.22-13.94,6.52-21.78,6.09-4.43-.24-6.65,.84-7.52,5.45-1.95,10.32-8.09,18.05-16.22,24.36-13.41,10.4-26.78,20.85-40.24,31.2-7.61,5.85-9.7,5.56-15.48-1.73-1.03-1.3-2.08-2.6-3.02-3.97-4.06-5.92-3.93-8.04,1.7-12.55,9.35-7.49,18.9-14.72,28.37-22.06,4.73-3.67,9.63-7.15,14.15-11.06,8.66-7.48,9.95-17.4,3.4-26.73-3.6-5.13-7.73-9.88-11.85-15.09Zm64.64-50.09c-10.65,8.23-20.62,15.91-30.57,23.61q-16.28,12.6-1.58,27.61c6.47,6.61,15.98,8.32,23.66,3.31,6.66-4.34,13.09-9.24,18.87-14.68,6.52-6.13,7.37-15.41,2.49-22.89-3.76-5.77-8.32-11.03-12.87-16.96Z"/><path d="M904.58,221.92c-9.12-7.21-17.66-13.56-25.7-20.48-4.06-3.49-5.93-1.96-8.59,1.47-12.22,15.8-24.65,31.44-37,47.13-1.85,2.35-3.68,4.73-5.61,7.02-2.52,2.99-5.23,3.31-8.75,1.23-14.21-8.39-14.81-11.19-4.68-24.05,25.95-32.95,51.95-65.87,77.78-98.92,7.29-9.33,16.27-15.44,28.03-17.54,17.29-3.09,34.87,4.06,44.4,18.37,9.85,14.78,9.99,34.37,.3,48.99-1.47,2.22-3.12,4.32-4.76,6.41-26.35,33.49-52.71,66.97-79.07,100.44-1.23,1.57-2.45,3.15-3.76,4.66-2.34,2.71-5.11,2.67-8.1,1.16-13.76-6.97-14.83-11.82-5.3-23.94,13.36-16.98,26.69-33.99,40.8-51.96Zm15.37-19.51c7.83-9.96,15.36-19.22,22.54-28.74,7.21-9.57,6.18-20.69-2.15-27.57-8.69-7.17-20.2-5.8-28.09,3.69-6.58,7.92-12.7,16.21-19.22,24.17-2.6,3.18-2.91,5.3,.75,8.01,8.53,6.33,16.77,13.05,26.17,20.43Z"/><path d="M162.84,330.3c-6.86,11.06-13.31,21.46-19.9,32.09,1.83,2.89,4.68,3.96,7.08,5.46,17.49,10.93,35.05,21.74,52.54,32.65,8.35,5.21,8.59,6.47,3.52,14.96-.85,1.43-1.73,2.84-2.66,4.22-4.15,6.17-5.73,6.71-12.09,2.84-13.65-8.28-27.16-16.78-40.72-25.2-24.59-15.26-49.29-30.33-73.72-45.83-21.95-13.94-27.7-41.86-13.37-62.76,13.1-19.09,38.79-24.66,59.32-12.3,21.37,12.86,42.41,26.26,63.6,39.42,16.67,10.35,33.39,20.62,50.03,31.03,7.87,4.92,8.05,6.11,3.22,14.25-.51,.86-1.04,1.7-1.58,2.54-5.69,8.98-6.47,9.19-15.62,3.55-19.53-12.05-39.02-24.15-59.67-36.93Zm-21.1-13.03c-11.03-6.89-21.28-13.6-31.84-19.79-9.72-5.7-20.5-3.14-26.29,5.64-6.06,9.19-3.86,20.48,5.81,27,9.08,6.12,18.56,11.63,27.82,17.48,2.6,1.64,4.55,2.1,6.47-1.11,5.78-9.63,11.77-19.12,18.03-29.23Z"/><path d="M598.66,104.53c-1.33,15.25-2.64,29.79-3.86,44.34-.78,9.28-1.39,18.58-2.19,27.86-.65,7.6-1.86,8.88-9.14,8.32-16.67-1.3-16.2,.63-14.87-16.47,3.34-42.79,6.65-85.59,10.4-128.34,1.89-21.54,18.96-38.44,39.26-40.07,22.12-1.78,40.88,11.05,47.08,31.98,1.75,5.9,1.68,11.86,1.21,17.82-2.24,28.53-4.65,57.04-6.98,85.56-1.22,14.92-2.25,29.86-3.6,44.77-.9,10.01-1.65,10.47-11.75,9.96-1-.05-1.99-.11-2.99-.21-9.82-.91-10.78-2.03-9.95-11.71,1.61-18.9,3.23-37.79,4.82-56.69,.25-2.98,.12-6.02,.59-8.96,.64-4.01-1.2-5.38-4.84-5.64-10.61-.75-21.22-1.6-33.18-2.52Zm28.94-22.39c1.33,.07,2.65,.15,3.98,.2,7.39,.31,7.55,.32,8.27-7.2,.95-9.91,1.9-19.84,2.33-29.78,.47-11.03-6.95-19.64-17.25-20.78-10.29-1.14-19.49,5.7-21.03,16.73-1.56,11.16-2.05,22.47-3.15,33.7-.39,3.95,1.28,5.19,5.02,5.38,7.29,.38,14.56,1.16,21.84,1.76Z"/><path d="M443.01,179.05c-.18,22.33-14.1,39.47-34.85,43.95-20.54,4.43-41.02-6.09-49.6-26.24-10.29-24.18-20.02-48.6-29.98-72.92-2.77-6.77-5.41-13.6-8.29-20.33-9.27-21.62,2.14-48.3,24.19-57.22,22.32-9.03,47.58,1.14,57.24,23.98,13.09,30.95,25.62,62.13,38.35,93.24,2.17,5.3,3.15,10.86,2.94,15.55Zm-24.49,.46c.13-2.44-.66-4.96-1.68-7.45-12.51-30.44-24.87-60.95-37.56-91.31-4.66-11.16-15.01-15.66-25.08-11.72-10.57,4.13-14.82,14.77-10.57,26.49,.34,.94,.73,1.86,1.11,2.78,11.47,27.99,22.93,55.99,34.44,83.97,1.26,3.06,2.53,6.21,4.37,8.93,4.84,7.15,13.86,9.84,22.12,6.98,7.7-2.66,12.95-10.17,12.85-18.66Z"/><path d="M489.37,5.87c19.7,0,36.8,13.02,41.99,32.1,.87,3.19,1.36,6.51,1.76,9.8,.54,4.43,3.91,9.86-.7,13.04-4.87,3.35-11.3,3.57-17.29,3.51-3.2-.03-4.43-2.47-4.9-5.35-.76-4.59-1.25-9.26-2.39-13.76-2.64-10.47-12.82-16.79-22.84-14.49-9.74,2.24-15.76,11.54-14.69,21.91,.46,4.5,3.22,7.08,6.1,9.86,19.89,19.19,39.39,38.8,59.75,57.47,13.12,12.03,15.1,26.24,10.37,41.8-5.16,16.97-17.07,27.67-34.82,30.48-23.42,3.71-44.69-11.37-49.6-34.57-.83-3.9-1.43-7.86-1.9-11.82-.94-7.96-.55-8.57,6.94-10.14,13.84-2.9,17.15-3.51,18.02,11.74,.13,2.3,.77,4.61,1.44,6.83,2.61,8.74,10.84,14.52,19.57,13.88,8.73-.64,16.32-7.57,17.75-16.33,1.06-6.49-1.47-11.42-6.19-15.91-18.58-17.66-36.95-35.55-55.4-53.35-1.2-1.16-2.41-2.3-3.59-3.47-13.03-12.84-16.8-29.31-10.37-45.27,7.05-17.5,22.4-27.97,41.01-27.96Z"/><path d="M44.74,391.75c8.71-.24,17.13,3.16,25.42,6.53,5.17,2.1,5.01,4.92,.48,16.65-2.5,6.49-3.66,7.39-9.23,5.98-4.51-1.14-8.83-3.04-13.36-4.09-9.98-2.33-19.73,3.48-22.75,13.22-2.84,9.15,1.91,18.91,10.97,23.1,4.3,1.99,8.19,1.39,12.5-.11,25.45-8.85,51-17.44,76.49-26.18,19.6-6.71,37.2-1.86,48.68,13.52,11.47,15.38,12.06,36.06,1.45,51.43-10.88,15.76-30.54,22.5-49.45,16.95-1.28-.37-2.57-.69-3.84-1.11-15-4.91-16.46-8.78-8.83-22.88,1.87-3.45,4.32-4.79,8.18-3.41,4.39,1.57,8.78,3.21,13.3,4.3,9.92,2.39,19.59-3.32,22.8-13.13,2.94-9.02-1.83-19.04-10.8-23.16-4.65-2.13-8.89-1.22-13.48,.37-26.09,9.04-52.92,16.34-78.2,27.23-20.75,8.94-51.04-8.56-54.61-34.84-3.69-27.15,16.38-50.43,44.3-50.37Z"/><path d="M773.59,142.19c-9.74,21.17-19.19,41.7-28.63,62.22-.83,1.81-1.57,3.67-2.47,5.45-2.15,4.28-5.44,5.6-9.91,3.65-1.22-.53-2.43-1.08-3.64-1.63-11.08-4.98-11.6-6.28-6.61-17.2,10.65-23.3,21.33-46.59,32-69.88,12.05-26.32,24.06-52.65,36.16-78.95,4.7-10.22,5.59-10.5,15.78-5.87,9.69,4.41,19.45,8.69,29.03,13.32,22.44,10.85,31.57,35.06,21.95,58.05-2.57,6.13-5.31,12.22-8.33,18.14-10.88,21.32-34.66,30.06-56.83,20.94-6.1-2.51-12.06-5.37-18.49-8.26Zm10.34-22.72c6.58,3.07,11.9,5.82,17.42,8.06,10.61,4.32,20.03,1.06,25.34-8.92,3.12-5.86,5.84-11.96,8.28-18.13,3.79-9.61,.49-18.87-8.51-23.88-4.93-2.74-10.26-4.74-15.31-7.28-2.9-1.46-4.16-.23-5.3,2.28-7.14,15.71-14.36,31.39-21.91,47.89Z"/><path d="M1110.15,510.24c-13.01-.3-24.37-5.02-32.41-15.11-4.46-5.6-8.52-5.62-14.43-4.01-20.23,5.49-40.56,10.61-60.85,15.85-9.86,2.54-11.32,1.65-13.89-8.26-.33-1.29-.69-2.57-.98-3.87-1.57-7.07-.7-8.94,6.21-10.87,12.18-3.4,24.44-6.5,36.67-9.69,10.3-2.69,20.59-5.43,30.93-7.97,3.28-.81,4.88-2.2,5.49-5.86,3.62-21.52,16.5-33.88,37.79-38.51,15.27-3.32,30.27-7.86,45.42-11.71,8.29-2.11,9.16-1.52,11.57,6.14,4.64,14.76,4.47,15.12-10.33,18.99-14.81,3.87-29.68,7.49-44.44,11.51-11.6,3.16-17.94,12.8-15.65,23.07,2.4,10.79,12.14,17.34,23.36,14.79,14.92-3.39,29.67-7.5,44.5-11.31,.32-.08,.62-.24,.95-.32,15.3-4.02,18.47-1.76,20.09,14.19,.35,3.43-.68,5.91-4.08,7.01-2.53,.82-5.11,1.5-7.69,2.17-15.78,4.1-31.57,8.17-47.35,12.26-3.56,.92-7.14,1.69-10.87,1.52Z"/><path d="M1095.88,329.12c-2.06-4.25-4.2-8.71-6.38-13.15-2.1-4.28-1.45-7.58,3.06-9.94,17.28-9.05,15.51-8.09,22.86,6.53,6.57,13.08,13.15,26.16,19.65,39.27,4.78,9.63,4.63,9.92-5.27,14.99-.89,.46-1.74,.98-2.64,1.41-8.3,3.94-9.52,3.52-13.84-4.78-1.84-3.53-3.64-7.08-5.43-10.55-4.17,.37-7.14,2.68-10.36,4.3-41.32,20.75-82.61,41.55-123.91,62.34-1.78,.9-3.55,1.82-5.38,2.63-4.25,1.88-7.72,1.3-10.05-3.17-8.06-15.5-8.3-15.27,6.08-22.48,41.62-20.87,83.22-41.79,124.8-62.74,2.34-1.18,5.04-1.89,6.83-4.65Z"/><path d="M136.21,574.97c-9.09,6.63-17.96,13.6-27.35,19.76-5.22,3.43-5.73,6.88-3.74,12.34,3.84,10.55,7.03,21.34,9.14,33.25-5.45-3.94-10.9-7.88-16.35-11.82-3.77-2.73-7.82-5.16-11.22-8.29-4.53-4.16-8.11-3.71-12.83,.02-8.99,7.12-18.52,13.56-29.7,21.64,4.29-13.35,7.52-24.46,11.49-35.32,1.94-5.29,1.23-8.45-3.61-11.61-8.07-5.27-15.7-11.21-23.46-16.93-1.49-1.1-3.55-1.79-4.22-5.11,11.55,0,22.68,.04,33.81-.01,8.15-.04,8.19-.08,10.85-8.13,3.44-10.4,6.82-20.82,10.25-31.29,3.46,.17,3.01,3.04,3.66,4.96,3.17,9.45,6.53,18.85,9.23,28.44,1.35,4.78,3.7,6.26,8.5,6.13,11.54-.31,23.1-.1,34.65-.1,.3,.69,.6,1.39,.9,2.08Z"/><path d="M1028.35,578.61c11.58,0,23.17-.27,34.74,.12,5.21,.18,7.69-1.62,9.15-6.54,3.29-11.14,7.04-22.15,10.88-34.08,3.64,3.71,3.86,8.06,5.2,11.77,2.71,7.5,5.34,15.07,7.31,22.79,1.25,4.93,3.84,6.12,8.49,6.02,11.62-.25,23.26-.08,34.88-.08,1.28,3.55-1.88,4.05-3.44,5.22-8.25,6.2-16.59,12.28-25.04,18.2-3.2,2.24-4.08,4.31-2.63,8.29,3.54,9.67,6.37,19.6,9.53,29.42,.6,1.87,1.76,3.64,.41,6.51-9.2-6.67-18.22-13.31-27.35-19.81-7-4.98-5.07-6-13.47,.04-8.65,6.22-17.25,12.5-25.9,18.71-.49,.35-1.2,.38-2.86,.87,3.58-11.26,6.86-21.98,10.41-32.6,2.95-8.84,3.56-7.56-4.64-13.57-8.82-6.46-17.65-12.9-26.48-19.34,.27-.65,.54-1.3,.81-1.95Z"/><path class="cls-1" d="M677.28,503.48c-.28,10.61-2.21,21.03-3.76,31.47-.99,6.69-5.81,10.06-11.96,12.02-7.65,2.44-15.58,3.49-23.44,4.77-41.83,6.78-83.5,5.4-125.14-2.25-11.09-2.04-17.29-7.47-19.04-18.44-1.45-9.12-3.09-18.21-4.77-28.06,63.15,20.42,125.44,20.17,188.11,.49Z"/><path class="cls-1" d="M598.57,649.33c-.4,7.84-.87,15.17-1,23-.28,17.19-.54,34.62-3.1,51.62-.79,5.24-2.51,11.21-7.4,13.24-4.92,2.04-10.74-1.28-13.32-5.94-2.58-4.65-2.75-10.22-2.86-15.54-.84-40.75-1.69-81.51-2.53-122.26-.1-5.01-.2-10.09,1-14.95s3.86-9.58,8.15-12.17c4.64-2.81,9.49-2.04,13.86,.69s5.75,7.5,6.33,12.7c2.53,22.98,2.07,46.48,.88,69.62Z"/><path class="cls-1" d="M629.69,577.35c-2.21,29.4-4.3,56.95-6.33,84.5-1.08,14.61-2.13,29.23-3.02,43.85-.41,6.67-1.11,13.3-2.72,19.75-1.07,4.31-3.16,8.57-8.63,8.05-5.06-.48-7.14-4.43-8.03-8.96-.39-1.95-.49-3.98-.48-5.97,.09-18.65,.15-37.31,1.27-55.94,.54-8.97,.6-17.97,.9-26.96,.63-18.97,1.3-37.95,1.9-56.92,.13-4.05,.65-8.01,2.66-11.57,2.48-4.37,6.11-7.04,11.41-6.52,5.3,.52,8.45,3.76,9.76,8.66,.85,3.19,1.08,6.55,1.31,8.02Z"/><path class="cls-1" d="M564.81,684.46c0,11.65,.05,23.31-.03,34.96-.02,3.66-.2,7.35-2.2,10.63-3.28,5.4-9.59,5.69-12.99,.42-2.2-3.42-2.83-7.38-3.14-11.43-1.01-13.27-2.29-26.51-3.22-39.79-2.17-30.87-4.23-61.75-6.28-92.63-.33-4.97-.84-10,.29-14.93,1.5-6.52,5.17-9.99,10.56-10.36,5.88-.4,10.51,2.93,12.36,9.48,1.27,4.47,1.85,9.1,1.96,13.81,.73,33.28,1.54,66.56,2.32,99.84h.37Z"/><path class="cls-1" d="M580.76,508.31c-22.13,.45-45.75-2.97-69.12-8.53-2.26-.54-4.54-1.09-6.71-1.9-2.65-.98-6.45-1.19-5.66-5.49,.67-3.64,3.23-5.67,6.92-6.16,6.28-.84,10.86,2.79,15.21,6.31,9.57,7.75,20.63,10.16,32.58,10.32,12.09,.17,22.94-3.69,32.91-10.02,9.54-6.05,18.67-12.73,28.07-19,11.13-7.43,23.23-11.36,36.79-9.68,12.51,1.55,19.86,10.41,18.7,22.56-.71,7.47-2.36,9.56-9.9,11.65-25.46,7.08-51.43,10.3-79.8,9.92Z"/><path class="cls-1" d="M624.27,701.02c2.54-32.08,5.14-64.87,7.74-97.66,.84-10.6,1.71-21.2,2.48-31.8,.22-3.02,.6-5.93,2.11-8.63,1.6-2.85,3.9-4.5,7.24-4.36,3.31,.14,5.58,1.83,6.94,4.83,1.44,3.16,1.38,6.35,.87,9.74-4.79,31.87-7.99,63.93-11.38,95.97-1.64,15.52-3.76,30.99-5.87,46.46-.52,3.79-.67,9.55-5.37,9.44-5.99-.14-4.41-6.29-4.7-10.29-.31-4.3-.07-8.64-.07-13.7Z"/><path class="cls-1" d="M540.74,700.25c0,6.66,.07,13.31-.04,19.97-.04,2.41-.81,4.89-3.49,5.41-3.56,.69-4.53-2.24-5.15-4.82-2.98-12.32-3.91-24.96-5.24-37.51-3.67-34.73-6.73-69.53-11.53-104.15-.59-4.26-.72-8.64-.47-12.93,.24-4.23,3.26-6.48,7.23-7.07,3.82-.57,6.54,1.61,7.81,4.93,1.17,3.06,1.92,6.41,2.16,9.68,3.07,42.15,6.02,84.31,9,126.47l-.28,.02Z"/><path class="cls-1" d="M332.74,590.42c-.9-3.24,1.02-5.94,2.2-8.51,4.53-9.91,5.96-20.35,6.5-31.05,.4-7.98-1.62-15.15-6.33-21.58-2.75-3.76-5.52-7.51-8.32-11.24-21.53-28.63-11.45-59.89,9.26-78.96,2.65-2.44,5.69-4.45,8.72-6.78,1.85,3.32-.71,4.75-1.72,6.53-5.29,9.31-9.88,18.9-11.81,29.52-2.3,12.6-.66,24.54,6.63,35.36,2.61,3.86,5.31,7.67,8.05,11.43,10.36,14.21,13.21,29.32,6.78,46.16-4.36,11.43-9.77,21.85-20.05,29.06l.1,.07Z"/><path class="cls-1" d="M568.57,456.28c4.68-9.59,7.6-19.68,9.33-30.23,1.99-12.09,.14-23.05-7.7-32.75-2.29-2.83-4.33-5.87-6.58-8.73-19.12-24.31-13.58-55.05,5.56-75.14,3.74-3.93,7.09-8.86,13.49-8.99l-.14-.11c-5.81,11.5-12.38,22.56-14.6,35.68-2.31,13.63,.54,25.65,8.29,36.77,2.66,3.81,5.42,7.56,8.1,11.35,9.12,12.89,10.6,26.87,5.92,41.72-2.62,8.3-6.17,16.16-11.78,22.87-2.67,3.2-4.99,7.2-9.97,7.45l.08,.1Z"/><path class="cls-1" d="M814.59,588.35c-1.31-2.81,.31-5.15,1.29-7.55,3.81-9.38,5.29-19.26,6.06-29.23,.58-7.49-1.15-14.59-5.54-20.84-3.64-5.18-7.59-10.14-11.12-15.39-14.3-21.25-13.62-45.61,1.9-66.08,4.96-6.54,10.31-12.79,18.85-16.95-.2,3.73-2.28,5.57-3.45,7.73-4.45,8.22-8.33,16.6-10.56,25.78-3.44,14.13-1.21,27.09,6.83,39.09,2.97,4.43,6.23,8.65,9.21,13.08,8.54,12.7,10.73,26.35,5.69,40.93-3.94,11.39-8.31,22.53-19.18,29.41,0,0,.03,.03,.03,.03Z"/><path class="cls-1" d="M614.64,442.36c5.12-15.9,15.09-27.89,29.74-35.71,10.88-5.81,22.38-5.63,33.8-1.43,4.4,1.62,8.36,4.09,11.29,7.92,4.15,5.44,5.54,11.43,2.48,17.73-2.83,5.82-7.83,8.87-14.31,9.33-4.02,.29-7.9-.3-11.79-1.43-9.34-2.7-18.9-3.19-28.61-3.03-8.29,.14-15.02,4.83-22.72,6.51l.12,.12Zm20.4-18.4c10.35-.3,18.64-.33,26.77,1.99,2.19,.63,4.62,.6,6.93,.59,3.37-.02,5.59-1.88,6.75-4.98,1.08-2.87-.15-5.19-1.97-7.27-2.32-2.65-5.33-3.79-8.8-4.12-11.87-1.11-21.05,3.56-29.69,13.79Z"/><path class="cls-1" d="M526.58,712.78s.04,.37,0,.7c-.26,2.11,.93,5.31-2.53,5.4-2.13,.06-2.92-2.45-3.23-4.48-1.29-8.54-2.56-17.08-3.78-25.62-5.79-40.76-11.57-81.52-17.34-122.29-.55-3.87-2.18-8.21,2.16-10.83,2.57-1.55,5.59,2.82,6.43,9.53,5.97,47.44,11.91,94.88,17.84,142.32,.21,1.65,.28,3.31,.44,5.27Z"/><path class="cls-1" d="M666.61,563.69c-2.26,15.33-4.58,30.77-6.82,46.22-4.53,31.23-9,62.48-13.56,93.7-.62,4.26-1.51,8.5-2.55,12.68-.29,1.19-1.57,2.01-3.15,1.7-1.26-.25-1.67-1.32-1.66-2.19,.04-3.31,.1-6.65,.52-9.93,5.87-45.14,11.78-90.27,17.75-135.4,.52-3.94,1.32-7.87,2.38-11.7,.51-1.86,1.82-3.85,4.17-3.65,2.52,.22,2.83,2.39,2.9,4.45,.05,1.33,0,2.66,0,4.1Z"/><path class="cls-1" d="M577.64,754.07c-13.64,.11-28.85-2.97-43.54-8.69-3.71-1.44-7.57-2.96-9.21-7.06-1.07-2.67-.32-4.84,2.97-4.55,2.26,.2,4.55,.98,6.67,1.88,31.6,13.45,63.44,11.79,95.44,1.64,2.84-.9,5.71-1.73,8.61-2.4,1.32-.3,2.67,.23,3.43,1.46,1.02,1.64,.46,3.19-.66,4.55-2.24,2.73-5.56,3.62-8.68,4.63-17.17,5.56-34.77,8.66-55.04,8.54Z"/><path class="cls-1" d="M536.53,474.33c-10.38-8.22-22.27-11.17-35.32-10.29-2.62,.18-5.35,.15-7.91-.36-5.9-1.17-9.83-5.28-10.55-10.48-.73-5.26,1.83-10.21,7.19-12.99,8.99-4.66,18.33-4.09,26.61,.92,12.25,7.41,19.49,18.48,19.86,33.31l.11-.11Zm-11.61-16.76c-5.26-9.32-11.72-14.18-21.05-14.13-3.7,.02-7.31,1.75-7.34,6.39-.02,4.3,3.38,5.47,6.76,5.66,6.78,.38,13.59,.15,21.64,2.09Z"/><path class="cls-1" d="M812.71,590.39c0-1.25,.18-2.35,1.89-2.04,0,0-.03-.03-.03-.03-.18,1.12-.91,1.72-1.95,2l.09,.07Z"/><polygon class="cls-2" points="332.64 590.35 332.36 590.54 332.74 590.42 332.64 590.35"/><polygon class="cls-1" points="812.62 590.32 812.36 590.54 812.71 590.39 812.62 590.32"/><polygon class="cls-1" points="536.42 474.44 537.05 474.7 536.53 474.33 536.42 474.44"/><polygon class="cls-1" points="568.49 456.18 568.31 456.61 568.57 456.28 568.49 456.18"/><path class="cls-1" d="M582.68,300.44c.16-.34,.31-.68,.47-1.03,0,.15,.05,.36-.03,.45-.16,.19-.38,.31-.58,.47,0,0,.14,.11,.14,.11Z"/><path class="cls-1" d="M614.52,442.24c-.08,.23-.17,.46-.25,.7,.13-.19,.25-.39,.38-.58,0,0-.12-.12-.12-.12Z"/><path d="M469.75,810.52c-6.58-4.62-13.45-8.54-20.81-11.48-14.89-5.94-21.06-17.7-21.86-32.78-.39-7.29-.18-14.69,.64-21.93,1.38-12.12,.57-23.92-3.31-35.47-4.07-12.12-5.76-24.57-5.74-37.32,.04-25.67,2.22-51.2,4.77-76.71,1.52-15.23,3.62-30.41,3.5-47.09,3.37,5.09,3.15,9.68,3.36,14.14,1.29,27.11-2.4,53.78-6.77,80.43-3.71,22.69-3.29,45.08,6.83,66.5,3.15,6.66,4.27,13.99,4.26,21.4-.02,10.99-.08,21.98-.24,32.96-.21,14.62,5.06,25.67,19.03,32.14,6.8,3.15,13.43,7.22,16.34,15.21Z"/><path d="M694.7,816.77c-.19-5.96,3.04-8.12,5.74-10.11,4.27-3.15,8.84-5.96,13.52-8.48,9.68-5.21,14.86-13.17,15.17-24.09,.23-7.98,.21-15.99-.05-23.97-.51-15.16,1.39-29.68,7.47-43.88,9.01-21.05,7.2-43.06,3.21-64.92-3.84-21.03-5.97-42.21-6.16-63.56-.07-7.62,.8-15.25,1.73-22.89,3.47,12.8,3.14,26.02,4.68,39,2.75,23.14,4.54,46.39,5.24,69.71,.52,17.41,0,34.61-6.05,51.25-3.61,9.91-3.24,20.31-2.92,30.65,.29,9.64,1.32,19.27,.38,28.94-1.26,12.94-7.05,22.7-19.2,28.22-7.77,3.52-15.55,7.04-22.77,14.12Z"/><path class="cls-1" d="M635.04,423.95c8.64-10.23,17.82-14.9,29.69-13.79,3.47,.32,6.48,1.47,8.8,4.12,1.83,2.09,3.05,4.4,1.97,7.27-1.16,3.1-3.38,4.96-6.75,4.98-2.32,.01-4.74,.04-6.93-.59-8.14-2.32-16.43-2.3-26.77-1.99Z"/><path class="cls-1" d="M524.92,457.57c-8.05-1.94-14.86-1.71-21.64-2.09-3.37-.19-6.78-1.36-6.76-5.66,.03-4.64,3.64-6.37,7.34-6.39,9.34-.05,15.8,4.82,21.05,14.13Z"/></svg>